o 
v -0.09787923484342675 -0.1010842683469031 0.0944570004940033
v 0.26731276125413794 -0.044398254409906635 0.0944570004940033
v 0.26731276125413794 -0.044398254409906635 -0.0944570004940033
v -0.09787923484342675 -0.1010842683469031 0.0944570004940033
v 0.26731276125413794 -0.044398254409906635 -0.0944570004940033
v -0.09787923484342675 -0.1010842683469031 -0.0944570004940033
v 0.4186797848413648 -0.7309992673550818 0.11334799975156784
v -0.019551236324482968 -0.7990222635422919 0.11334799975156784
v -0.019551236324482968 -0.7990222635422919 -0.11334799975156784
v 0.4186797848413648 -0.7309992673550818 0.11334799975156784
v -0.019551236324482968 -0.7990222635422919 -0.11334799975156784
v 0.4186797848413648 -0.7309992673550818 -0.11334799975156784
v 0.4186797848413648 -0.7309992673550818 0.11334799975156784
v 0.40835477025014777 -0.6646572711621497 -0.11334799975156784
v 0.40835477025014777 -0.6646572711621497 0.11334799975156784
v 0.40835477025014777 -0.6646572711621497 -0.11334799975156784
v 0.4186797848413648 -0.7309992673550818 0.11334799975156784
v 0.4186797848413648 -0.7309992673550818 -0.11334799975156784
v -0.09787923484342675 -0.1010842683469031 0.0944570004940033
v -0.09787923484342675 -0.1010842683469031 -0.0944570004940033
v -0.1160712429811297 -0.22146726276027895 0.0944570004940033
v -0.1160712429811297 -0.22146726276027895 0.0944570004940033
v -0.09787923484342675 -0.1010842683469031 -0.0944570004940033
v -0.1160712429811297 -0.22146726276027895 -0.0944570004940033
v -0.1160712429811297 -0.22146726276027895 -0.0944570004940033
v -0.12137024491327386 -0.3398482600902293 0.0944570004940033
v -0.1160712429811297 -0.22146726276027895 0.0944570004940033
v -0.12137024491327386 -0.3398482600902293 0.0944570004940033
v -0.1160712429811297 -0.22146726276027895 -0.0944570004940033
v -0.12137024491327386 -0.3398482600902293 -0.0944570004940033
v -0.12137024491327386 -0.3398482600902293 0.0944570004940033
v -0.12137024491327386 -0.3398482600902293 -0.0944570004940033
v -0.10355122774141412 -0.4546412664209578 0.0944570004940033
v -0.10355122774141412 -0.4546412664209578 0.0944570004940033
v -0.12137024491327386 -0.3398482600902293 -0.0944570004940033
v -0.10355122774141412 -0.4546412664209578 -0.0944570004940033
v -0.10355122774141412 -0.4546412664209578 -0.0944570004940033
v -0.06261623292463403 -0.5658472540532324 0.0944570004940033
v -0.10355122774141412 -0.4546412664209578 0.0944570004940033
v -0.06261623292463403 -0.5658472540532324 0.0944570004940033
v -0.10355122774141412 -0.4546412664209578 -0.0944570004940033
v -0.06261623292463403 -0.5658472540532324 -0.0944570004940033
v -0.06261623292463403 -0.5658472540532324 -0.0944570004940033
v -0.00878823935287576 -0.675050264850733 0.0944570004940033
v -0.06261623292463403 -0.5658472540532324 0.0944570004940033
v -0.00878823935287576 -0.675050264850733 0.0944570004940033
v -0.06261623292463403 -0.5658472540532324 -0.0944570004940033
v -0.00878823935287576 -0.675050264850733 -0.0944570004940033
v -0.029876236014538815 -0.7326802673493598 -0.11334799975156784
v -0.00878823935287576 -0.675050264850733 0.0944570004940033
v -0.00878823935287576 -0.675050264850733 -0.0944570004940033
v -0.029876236014538815 -0.7326802673493598 -0.11334799975156784
v -0.029876236014538815 -0.7326802673493598 0.11334799975156784
v -0.00878823935287576 -0.675050264850733 0.0944570004940033
v -0.019551236324482968 -0.7990222635422919 -0.11334799975156784
v -0.019551236324482968 -0.7990222635422919 0.11334799975156784
v -0.029876236014538815 -0.7326802673493598 0.11334799975156784
v -0.029876236014538815 -0.7326802673493598 0.11334799975156784
v -0.029876236014538815 -0.7326802673493598 -0.11334799975156784
v -0.019551236324482968 -0.7990222635422919 -0.11334799975156784
v 0.26731276125413794 -0.044398254409906635 0.0944570004940033
v 0.2491207680175962 -0.1647812488232825 0.0944570004940033
v 0.2491207680175962 -0.1647812488232825 -0.0944570004940033
v 0.26731276125413794 -0.044398254409906635 0.0944570004940033
v 0.2491207680175962 -0.1647812488232825 -0.0944570004940033
v 0.26731276125413794 -0.044398254409906635 -0.0944570004940033
v 0.2491207680175962 -0.1647812488232825 0.0944570004940033
v 0.24382276446325202 -0.2831632631574843 -0.0944570004940033
v 0.2491207680175962 -0.1647812488232825 -0.0944570004940033
v 0.2491207680175962 -0.1647812488232825 0.0944570004940033
v 0.24382276446325202 -0.2831632631574843 0.0944570004940033
v 0.24382276446325202 -0.2831632631574843 -0.0944570004940033
v 0.24382276446325202 -0.2831632631574843 0.0944570004940033
v 0.2616407683561506 -0.39795626203763224 -0.0944570004940033
v 0.24382276446325202 -0.2831632631574843 -0.0944570004940033
v 0.24382276446325202 -0.2831632631574843 0.0944570004940033
v 0.2616407683561506 -0.39795626203763224 0.0944570004940033
v 0.2616407683561506 -0.39795626203763224 -0.0944570004940033
v 0.2616407683561506 -0.39795626203763224 0.0944570004940033
v 0.30257576317293067 -0.5091612699185584 -0.0944570004940033
v 0.2616407683561506 -0.39795626203763224 -0.0944570004940033
v 0.2616407683561506 -0.39795626203763224 0.0944570004940033
v 0.30257576317293067 -0.5091612699185584 0.0944570004940033
v 0.30257576317293067 -0.5091612699185584 -0.0944570004940033
v 0.30257576317293067 -0.5091612699185584 0.0944570004940033
v 0.35640376419526953 -0.6183662625704978 -0.0944570004940033
v 0.30257576317293067 -0.5091612699185584 -0.0944570004940033
v 0.30257576317293067 -0.5091612699185584 0.0944570004940033
v 0.35640376419526953 -0.6183662625704978 0.0944570004940033
v 0.35640376419526953 -0.6183662625704978 -0.0944570004940033
v 0.40835477025014777 -0.6646572711621497 0.11334799975156784
v 0.35640376419526953 -0.6183662625704978 -0.0944570004940033
v 0.35640376419526953 -0.6183662625704978 0.0944570004940033
v 0.40835477025014777 -0.6646572711621497 0.11334799975156784
v 0.40835477025014777 -0.6646572711621497 -0.11334799975156784
v 0.35640376419526953 -0.6183662625704978 -0.0944570004940033
v -0.019551236324482968 -0.7990222635422919 0.11334799975156784
v 0.40835477025014777 -0.6646572711621497 0.11334799975156784
v -0.029876236014538815 -0.7326802673493598 0.11334799975156784
v 0.40835477025014777 -0.6646572711621497 0.11334799975156784
v -0.019551236324482968 -0.7990222635422919 0.11334799975156784
v 0.4186797848413648 -0.7309992673550818 0.11334799975156784
v -0.019551236324482968 -0.7990222635422919 -0.11334799975156784
v 0.40835477025014777 -0.6646572711621497 -0.11334799975156784
v 0.4186797848413648 -0.7309992673550818 -0.11334799975156784
v 0.40835477025014777 -0.6646572711621497 -0.11334799975156784
v -0.019551236324482968 -0.7990222635422919 -0.11334799975156784
v -0.029876236014538815 -0.7326802673493598 -0.11334799975156784
v -0.09787923484342675 -0.1010842683469031 -0.0944570004940033
v 0.2491207680175962 -0.1647812488232825 -0.0944570004940033
v -0.1160712429811297 -0.22146726276027895 -0.0944570004940033
v 0.2491207680175962 -0.1647812488232825 -0.0944570004940033
v -0.09787923484342675 -0.1010842683469031 -0.0944570004940033
v 0.26731276125413794 -0.044398254409906635 -0.0944570004940033
v 0.24382276446325202 -0.2831632631574843 -0.0944570004940033
v -0.1160712429811297 -0.22146726276027895 -0.0944570004940033
v 0.2491207680175962 -0.1647812488232825 -0.0944570004940033
v -0.1160712429811297 -0.22146726276027895 -0.0944570004940033
v 0.24382276446325202 -0.2831632631574843 -0.0944570004940033
v -0.12137024491327386 -0.3398482600902293 -0.0944570004940033
v -0.12137024491327386 -0.3398482600902293 -0.0944570004940033
v 0.24382276446325202 -0.2831632631574843 -0.0944570004940033
v -0.10355122774141412 -0.4546412664209578 -0.0944570004940033
v 0.2616407683561506 -0.39795626203763224 -0.0944570004940033
v -0.10355122774141412 -0.4546412664209578 -0.0944570004940033
v 0.24382276446325202 -0.2831632631574843 -0.0944570004940033
v -0.10355122774141412 -0.4546412664209578 -0.0944570004940033
v 0.2616407683561506 -0.39795626203763224 -0.0944570004940033
v -0.06261623292463403 -0.5658472540532324 -0.0944570004940033
v 0.30257576317293067 -0.5091612699185584 -0.0944570004940033
v -0.06261623292463403 -0.5658472540532324 -0.0944570004940033
v 0.2616407683561506 -0.39795626203763224 -0.0944570004940033
v -0.06261623292463403 -0.5658472540532324 -0.0944570004940033
v 0.30257576317293067 -0.5091612699185584 -0.0944570004940033
v -0.00878823935287576 -0.675050264850733 -0.0944570004940033
v 0.35640376419526953 -0.6183662625704978 -0.0944570004940033
v -0.00878823935287576 -0.675050264850733 -0.0944570004940033
v 0.30257576317293067 -0.5091612699185584 -0.0944570004940033
v 0.35640376419526953 -0.6183662625704978 -0.0944570004940033
v -0.029876236014538815 -0.7326802673493598 -0.11334799975156784
v -0.00878823935287576 -0.675050264850733 -0.0944570004940033
v -0.029876236014538815 -0.7326802673493598 -0.11334799975156784
v 0.35640376419526953 -0.6183662625704978 -0.0944570004940033
v 0.40835477025014777 -0.6646572711621497 -0.11334799975156784
v -0.09787923484342675 -0.1010842683469031 0.0944570004940033
v 0.2491207680175962 -0.1647812488232825 0.0944570004940033
v 0.26731276125413794 -0.044398254409906635 0.0944570004940033
v 0.2491207680175962 -0.1647812488232825 0.0944570004940033
v -0.09787923484342675 -0.1010842683469031 0.0944570004940033
v -0.1160712429811297 -0.22146726276027895 0.0944570004940033
v -0.1160712429811297 -0.22146726276027895 0.0944570004940033
v 0.24382276446325202 -0.2831632631574843 0.0944570004940033
v 0.2491207680175962 -0.1647812488232825 0.0944570004940033
v 0.24382276446325202 -0.2831632631574843 0.0944570004940033
v -0.1160712429811297 -0.22146726276027895 0.0944570004940033
v -0.12137024491327386 -0.3398482600902293 0.0944570004940033
v -0.10355122774141412 -0.4546412664209578 0.0944570004940033
v 0.24382276446325202 -0.2831632631574843 0.0944570004940033
v -0.12137024491327386 -0.3398482600902293 0.0944570004940033
v 0.24382276446325202 -0.2831632631574843 0.0944570004940033
v -0.10355122774141412 -0.4546412664209578 0.0944570004940033
v 0.2616407683561506 -0.39795626203763224 0.0944570004940033
v -0.06261623292463403 -0.5658472540532324 0.0944570004940033
v 0.2616407683561506 -0.39795626203763224 0.0944570004940033
v -0.10355122774141412 -0.4546412664209578 0.0944570004940033
v 0.2616407683561506 -0.39795626203763224 0.0944570004940033
v -0.06261623292463403 -0.5658472540532324 0.0944570004940033
v 0.30257576317293067 -0.5091612699185584 0.0944570004940033
v -0.00878823935287576 -0.675050264850733 0.0944570004940033
v 0.30257576317293067 -0.5091612699185584 0.0944570004940033
v -0.06261623292463403 -0.5658472540532324 0.0944570004940033
v 0.30257576317293067 -0.5091612699185584 0.0944570004940033
v -0.00878823935287576 -0.675050264850733 0.0944570004940033
v 0.35640376419526953 -0.6183662625704978 0.0944570004940033
v -0.029876236014538815 -0.7326802673493598 0.11334799975156784
v 0.35640376419526953 -0.6183662625704978 0.0944570004940033
v -0.00878823935287576 -0.675050264850733 0.0944570004940033
v 0.35640376419526953 -0.6183662625704978 0.0944570004940033
v -0.029876236014538815 -0.7326802673493598 0.11334799975156784
v 0.40835477025014777 -0.6646572711621497 0.11334799975156784
vt 0 0
vt 0 0
vt 0 0
vt 0 0
vt 0 0
vt 0 0
vt 0 0
vt 0 0
vt 0 0
vt 0 0
vt 0 0
vt 0 0
vt 0 0
vt 0 0
vt 0 0
vt 0 0
vt 0 0
vt 0 0
vt 0 0
vt 0 0
vt 0 0
vt 0 0
vt 0 0
vt 0 0
vt 0 0
vt 0 0
vt 0 0
vt 0 0
vt 0 0
vt 0 0
vt 0 0
vt 0 0
vt 0 0
vt 0 0
vt 0 0
vt 0 0
vt 0 0
vt 0 0
vt 0 0
vt 0 0
vt 0 0
vt 0 0
vt 0 0
vt 0 0
vt 0 0
vt 0 0
vt 0 0
vt 0 0
vt 0 0
vt 0 0
vt 0 0
vt 0 0
vt 0 0
vt 0 0
vt 0 0
vt 0 0
vt 0 0
vt 0 0
vt 0 0
vt 0 0
vt 0 0
vt 0 0
vt 0 0
vt 0 0
vt 0 0
vt 0 0
vt 0 0
vt 0 0
vt 0 0
vt 0 0
vt 0 0
vt 0 0
vt 0 0
vt 0 0
vt 0 0
vt 0 0
vt 0 0
vt 0 0
vt 0 0
vt 0 0
vt 0 0
vt 0 0
vt 0 0
vt 0 0
vt 0 0
vt 0 0
vt 0 0
vt 0 0
vt 0 0
vt 0 0
vt 0 0
vt 0 0
vt 0 0
vt 0 0
vt 0 0
vt 0 0
vt 0 0
vt 0 0
vt 0 0
vt 0 0
vt 0 0
vt 0 0
vt 0 0
vt 0 0
vt 0 0
vt 0 0
vt 0 0
vt 0 0
vt 0 0
vt 0 0
vt 0 0
vt 0 0
vt 0 0
vt 0 0
vt 0 0
vt 0 0
vt 0 0
vt 0 0
vt 0 0
vt 0 0
vt 0 0
vt 0 0
vt 0 0
vt 0 0
vt 0 0
vt 0 0
vt 0 0
vt 0 0
vt 0 0
vt 0 0
vt 0 0
vt 0 0
vt 0 0
vt 0 0
vt 0 0
vt 0 0
vt 0 0
vt 0 0
vt 0 0
vt 0 0
vt 0 0
vt 0 0
vt 0 0
vt 0 0
vt 0 0
vt 0 0
vt 0 0
vt 0 0
vt 0 0
vt 0 0
vt 0 0
vt 0 0
vt 0 0
vt 0 0
vt 0 0
vt 0 0
vt 0 0
vt 0 0
vt 0 0
vt 0 0
vt 0 0
vt 0 0
vt 0 0
vt 0 0
vt 0 0
vt 0 0
vt 0 0
vt 0 0
vt 0 0
vt 0 0
vt 0 0
vt 0 0
vt 0 0
vt 0 0
vt 0 0
vt 0 0
vt 0 0
vt 0 0
vt 0 0
vt 0 0
vn -0.15339498134545673 0.9881649557123685 -1.878546847311839e-17
vn -0.15339498134545673 0.9881649557123685 -1.878546847311839e-17
vn -0.15339498134545673 0.9881649557123685 -1.878546847311839e-17
vn -0.15339498134545673 0.9881649557123685 -1.878546847311839e-17
vn -0.15339498134545673 0.9881649557123685 -1.878546847311839e-17
vn -0.15339498134545673 0.9881649557123685 -1.878546847311839e-17
vn 0.15339498134545673 -0.9881649557123685 1.878546847311839e-17
vn 0.15339498134545673 -0.9881649557123685 1.878546847311839e-17
vn 0.15339498134545673 -0.9881649557123685 1.878546847311839e-17
vn 0.15339498134545673 -0.9881649557123685 1.878546847311839e-17
vn 0.15339498134545673 -0.9881649557123685 1.878546847311839e-17
vn 0.15339498134545673 -0.9881649557123685 1.878546847311839e-17
vn 0.9881019998991042 0.15379999283286858 1.2100758774713938e-16
vn 0.9881019998991042 0.15379999283286858 1.2100758774713938e-16
vn 0.9881019998991042 0.15379999283286858 1.2100758774713938e-16
vn 0.9881019998991042 0.15379999283286858 1.2100758774713938e-16
vn 0.9881019998991042 0.15379999283286858 1.2100758774713938e-16
vn 0.9881019998991042 0.15379999283286858 1.2100758774713938e-16
vn -0.9887772866162776 0.1493970463956746 -1.2109029572042e-16
vn -0.9887772866162776 0.1493970463956746 -1.2109029572042e-16
vn -0.9952449253952835 0.09740399619592825 -1.2188235073693526e-16
vn -0.9952449253952835 0.09740399619592825 -1.2188235073693526e-16
vn -0.9887772866162776 0.1493970463956746 -1.2109029572042e-16
vn -0.9952449253952835 0.09740399619592825 -1.2188235073693526e-16
vn -0.9952449253952835 0.09740399619592825 -1.2188235073693526e-16
vn -0.9984808965653281 -0.0550989944926248 -1.222786400296776e-16
vn -0.9952449253952835 0.09740399619592825 -1.2188235073693526e-16
vn -0.9984808965653281 -0.0550989944926248 -1.222786400296776e-16
vn -0.9952449253952835 0.09740399619592825 -1.2188235073693526e-16
vn -0.9984808965653281 -0.0550989944926248 -1.222786400296776e-16
vn -0.9984808965653281 -0.0550989944926248 -1.222786400296776e-16
vn -0.9984808965653281 -0.0550989944926248 -1.222786400296776e-16
vn -0.9674929441250806 -0.25289800922147176 -1.184837105607612e-16
vn -0.9674929441250806 -0.25289800922147176 -1.184837105607612e-16
vn -0.9984808965653281 -0.0550989944926248 -1.222786400296776e-16
vn -0.9674929441250806 -0.25289800922147176 -1.184837105607612e-16
vn -0.9674929441250806 -0.25289800922147176 -1.184837105607612e-16
vn -0.9185594861171941 -0.3952827727894503 -1.1249109662206494e-16
vn -0.9674929441250806 -0.25289800922147176 -1.184837105607612e-16
vn -0.9185594861171941 -0.3952827727894503 -1.1249109662206494e-16
vn -0.9674929441250806 -0.25289800922147176 -1.184837105607612e-16
vn -0.9185594861171941 -0.3952827727894503 -1.1249109662206494e-16
vn -0.9185594861171941 -0.3952827727894503 -1.1249109662206494e-16
vn -0.9997308206610036 -0.023200996109571322 -1.2243171656470022e-16
vn -0.9185594861171941 -0.3952827727894503 -1.1249109662206494e-16
vn -0.9997308206610036 -0.023200996109571322 -1.2243171656470022e-16
vn -0.9185594861171941 -0.3952827727894503 -1.1249109662206494e-16
vn -0.9997308206610036 -0.023200996109571322 -1.2243171656470022e-16
vn -0.9391142268195402 0.3436051061686031 -1.1500832209194e-16
vn -0.9997308206610036 -0.023200996109571322 -1.2243171656470022e-16
vn -0.9997308206610036 -0.023200996109571322 -1.2243171656470022e-16
vn -0.9391142268195402 0.3436051061686031 -1.1500832209194e-16
vn -0.9391142268195402 0.3436051061686031 -1.1500832209194e-16
vn -0.9997308206610036 -0.023200996109571322 -1.2243171656470022e-16
vn -0.9881019998991042 -0.15379999283286858 -1.2100758774713938e-16
vn -0.9881019998991042 -0.15379999283286858 -1.2100758774713938e-16
vn -0.9881019998991042 -0.15379999283286858 -1.2100758774713938e-16
vn -0.9881019998991042 -0.15379999283286858 -1.2100758774713938e-16
vn -0.9881019998991042 -0.15379999283286858 -1.2100758774713938e-16
vn -0.9881019998991042 -0.15379999283286858 -1.2100758774713938e-16
vn 0.9887772866162776 -0.1493970463956746 1.2109029572042e-16
vn 0.9952449253952835 -0.09740399619592825 1.2188235073693526e-16
vn 0.9952449253952835 -0.09740399619592825 1.2188235073693526e-16
vn 0.9887772866162776 -0.1493970463956746 1.2109029572042e-16
vn 0.9952449253952835 -0.09740399619592825 1.2188235073693526e-16
vn 0.9887772866162776 -0.1493970463956746 1.2109029572042e-16
vn 0.9952449253952835 -0.09740399619592825 1.2188235073693526e-16
vn 0.9984808965653281 0.0550989944926248 1.222786400296776e-16
vn 0.9952449253952835 -0.09740399619592825 1.2188235073693526e-16
vn 0.9952449253952835 -0.09740399619592825 1.2188235073693526e-16
vn 0.9984808965653281 0.0550989944926248 1.222786400296776e-16
vn 0.9984808965653281 0.0550989944926248 1.222786400296776e-16
vn 0.9984808965653281 0.0550989944926248 1.222786400296776e-16
vn 0.9674929441250806 0.25289800922147176 1.184837105607612e-16
vn 0.9984808965653281 0.0550989944926248 1.222786400296776e-16
vn 0.9984808965653281 0.0550989944926248 1.222786400296776e-16
vn 0.9674929441250806 0.25289800922147176 1.184837105607612e-16
vn 0.9674929441250806 0.25289800922147176 1.184837105607612e-16
vn 0.9674929441250806 0.25289800922147176 1.184837105607612e-16
vn 0.9185594861171941 0.3952827727894503 1.1249109662206494e-16
vn 0.9674929441250806 0.25289800922147176 1.184837105607612e-16
vn 0.9674929441250806 0.25289800922147176 1.184837105607612e-16
vn 0.9185594861171941 0.3952827727894503 1.1249109662206494e-16
vn 0.9185594861171941 0.3952827727894503 1.1249109662206494e-16
vn 0.9185594861171941 0.3952827727894503 1.1249109662206494e-16
vn 0.7683849425216841 0.6399879530943908 9.41000146527791e-17
vn 0.9185594861171941 0.3952827727894503 1.1249109662206494e-16
vn 0.9185594861171941 0.3952827727894503 1.1249109662206494e-16
vn 0.7683849425216841 0.6399879530943908 9.41000146527791e-17
vn 0.7683849425216841 0.6399879530943908 9.41000146527791e-17
vn 0.6652879008884386 0.7465869064827317 8.147427143405866e-17
vn 0.7683849425216841 0.6399879530943908 9.41000146527791e-17
vn 0.7683849425216841 0.6399879530943908 9.41000146527791e-17
vn 0.6652879008884386 0.7465869064827317 8.147427143405866e-17
vn 0.6652879008884386 0.7465869064827317 8.147427143405866e-17
vn 0.7683849425216841 0.6399879530943908 9.41000146527791e-17
vn -1.2246468525851679e-16 0 1
vn -1.2246468525851679e-16 0 1
vn -1.2246468525851679e-16 0 1
vn -1.2246468525851679e-16 0 1
vn -1.2246468525851679e-16 0 1
vn -1.2246468525851679e-16 0 1
vn 1.2246468525851679e-16 0 -1
vn 1.2246468525851679e-16 0 -1
vn 1.2246468525851679e-16 0 -1
vn 1.2246468525851679e-16 0 -1
vn 1.2246468525851679e-16 0 -1
vn 1.2246468525851679e-16 0 -1
vn 1.2246468525851679e-16 0 -1
vn 1.2246468525851679e-16 0 -1
vn 1.2246468525851679e-16 0 -1
vn 1.2246468525851679e-16 0 -1
vn 1.2246468525851679e-16 0 -1
vn 1.2246468525851679e-16 0 -1
vn 1.2246468525851679e-16 0 -1
vn 1.2246468525851679e-16 0 -1
vn 1.2246468525851679e-16 0 -1
vn 1.2246468525851679e-16 0 -1
vn 1.2246468525851679e-16 0 -1
vn 1.2246468525851679e-16 0 -1
vn 1.2246468525851679e-16 0 -1
vn 1.2246468525851679e-16 0 -1
vn 1.2246468525851679e-16 0 -1
vn 1.2246468525851679e-16 0 -1
vn 1.2246468525851679e-16 0 -1
vn 1.2246468525851679e-16 0 -1
vn 1.2246468525851679e-16 0 -1
vn 1.2246468525851679e-16 0 -1
vn 1.2246468525851679e-16 0 -1
vn 1.2246468525851679e-16 0 -1
vn 1.2246468525851679e-16 0 -1
vn 1.2246468525851679e-16 0 -1
vn 1.2246468525851679e-16 0 -1
vn 1.2246468525851679e-16 0 -1
vn -0.03200198304692727 0.20590989080990166 -0.9780475397176348
vn -0.022700992817546218 0.14600294489701923 -0.9890236625109107
vn -0.03200198304692727 0.20590989080990166 -0.9780475397176348
vn 1.2246468525851679e-16 0 -1
vn -0.022700992817546218 0.14600294489701923 -0.9890236625109107
vn -0.050896983540894794 0.32788190211609386 -0.9433466782319054
vn -0.03200198304692727 0.20590989080990166 -0.9780475397176348
vn -0.050896983540894794 0.32788190211609386 -0.9433466782319054
vn -0.022700992817546218 0.14600294489701923 -0.9890236625109107
vn -0.050896983540894794 0.32788190211609386 -0.9433466782319054
vn -1.2246468525851679e-16 0 1
vn -1.2246468525851679e-16 0 1
vn -1.2246468525851679e-16 0 1
vn -1.2246468525851679e-16 0 1
vn -1.2246468525851679e-16 0 1
vn -1.2246468525851679e-16 0 1
vn -1.2246468525851679e-16 0 1
vn -1.2246468525851679e-16 0 1
vn -1.2246468525851679e-16 0 1
vn -1.2246468525851679e-16 0 1
vn -1.2246468525851679e-16 0 1
vn -1.2246468525851679e-16 0 1
vn -1.2246468525851679e-16 0 1
vn -1.2246468525851679e-16 0 1
vn -1.2246468525851679e-16 0 1
vn -1.2246468525851679e-16 0 1
vn -1.2246468525851679e-16 0 1
vn -1.2246468525851679e-16 0 1
vn -1.2246468525851679e-16 0 1
vn -1.2246468525851679e-16 0 1
vn -1.2246468525851679e-16 0 1
vn -1.2246468525851679e-16 0 1
vn -1.2246468525851679e-16 0 1
vn -1.2246468525851679e-16 0 1
vn -0.03200198304692727 0.20590989080990166 0.9780475397176348
vn -1.2246468525851679e-16 0 1
vn -1.2246468525851679e-16 0 1
vn -1.2246468525851679e-16 0 1
vn -0.03200198304692727 0.20590989080990166 0.9780475397176348
vn -0.022700992817546218 0.14600294489701923 0.9890236625109107
vn -0.050896983540894794 0.32788190211609386 0.9433466782319054
vn -0.022700992817546218 0.14600294489701923 0.9890236625109107
vn -0.03200198304692727 0.20590989080990166 0.9780475397176348
vn -0.022700992817546218 0.14600294489701923 0.9890236625109107
vn -0.050896983540894794 0.32788190211609386 0.9433466782319054
vn -0.050896983540894794 0.32788190211609386 0.9433466782319054
f 1/1/1 2/2/2 3/3/3
f 4/4/4 5/5/5 6/6/6
f 7/7/7 8/8/8 9/9/9
f 10/10/10 11/11/11 12/12/12
f 13/13/13 14/14/14 15/15/15
f 16/16/16 17/17/17 18/18/18
f 19/19/19 20/20/20 21/21/21
f 22/22/22 23/23/23 24/24/24
f 25/25/25 26/26/26 27/27/27
f 28/28/28 29/29/29 30/30/30
f 31/31/31 32/32/32 33/33/33
f 34/34/34 35/35/35 36/36/36
f 37/37/37 38/38/38 39/39/39
f 40/40/40 41/41/41 42/42/42
f 43/43/43 44/44/44 45/45/45
f 46/46/46 47/47/47 48/48/48
f 49/49/49 50/50/50 51/51/51
f 52/52/52 53/53/53 54/54/54
f 55/55/55 56/56/56 57/57/57
f 58/58/58 59/59/59 60/60/60
f 61/61/61 62/62/62 63/63/63
f 64/64/64 65/65/65 66/66/66
f 67/67/67 68/68/68 69/69/69
f 70/70/70 71/71/71 72/72/72
f 73/73/73 74/74/74 75/75/75
f 76/76/76 77/77/77 78/78/78
f 79/79/79 80/80/80 81/81/81
f 82/82/82 83/83/83 84/84/84
f 85/85/85 86/86/86 87/87/87
f 88/88/88 89/89/89 90/90/90
f 91/91/91 92/92/92 93/93/93
f 94/94/94 95/95/95 96/96/96
f 97/97/97 98/98/98 99/99/99
f 100/100/100 101/101/101 102/102/102
f 103/103/103 104/104/104 105/105/105
f 106/106/106 107/107/107 108/108/108
f 109/109/109 110/110/110 111/111/111
f 112/112/112 113/113/113 114/114/114
f 115/115/115 116/116/116 117/117/117
f 118/118/118 119/119/119 120/120/120
f 121/121/121 122/122/122 123/123/123
f 124/124/124 125/125/125 126/126/126
f 127/127/127 128/128/128 129/129/129
f 130/130/130 131/131/131 132/132/132
f 133/133/133 134/134/134 135/135/135
f 136/136/136 137/137/137 138/138/138
f 139/139/139 140/140/140 141/141/141
f 142/142/142 143/143/143 144/144/144
f 145/145/145 146/146/146 147/147/147
f 148/148/148 149/149/149 150/150/150
f 151/151/151 152/152/152 153/153/153
f 154/154/154 155/155/155 156/156/156
f 157/157/157 158/158/158 159/159/159
f 160/160/160 161/161/161 162/162/162
f 163/163/163 164/164/164 165/165/165
f 166/166/166 167/167/167 168/168/168
f 169/169/169 170/170/170 171/171/171
f 172/172/172 173/173/173 174/174/174
f 175/175/175 176/176/176 177/177/177
f 178/178/178 179/179/179 180/180/180
