o 
v 0.05746176466345787 -0.21110104426189275 0.10079699754714966
v 0.05746176466345787 -0.21110104426189275 -0.10079699754714966
v 0.08941475301980972 -0.20335615083022923 0.10079699754714966
v 0.08941475301980972 -0.20335615083022923 0.10079699754714966
v 0.05746176466345787 -0.21110104426189275 -0.10079699754714966
v 0.08941475301980972 -0.20335615083022923 -0.10079699754714966
v -0.0361437126994133 0.3147273917551437 0.10079699754714966
v -0.0361437126994133 0.3147273917551437 -0.10079699754714966
v -0.06809686124324799 0.3069844503755966 0.10079699754714966
v -0.06809686124324799 0.3069844503755966 0.10079699754714966
v -0.0361437126994133 0.3147273917551437 -0.10079699754714966
v -0.06809686124324799 0.3069844503755966 -0.10079699754714966
v -0.059991344809532166 -0.2395651082639298 0.10079699754714966
v -0.059991344809532166 -0.2395651082639298 -0.10079699754714966
v -0.028039192780852318 -0.23182227119251103 0.10079699754714966
v -0.028039192780852318 -0.23182227119251103 0.10079699754714966
v -0.059991344809532166 -0.2395651082639298 -0.10079699754714966
v -0.028039192780852318 -0.23182227119251103 -0.10079699754714966
v -0.15359774231910706 0.2862622697706619 0.10079699754714966
v -0.15359774231910706 0.2862622697706619 -0.10079699754714966
v -0.18554982542991638 0.27851840451912074 0.10079699754714966
v -0.18554982542991638 0.27851840451912074 0.10079699754714966
v -0.15359774231910706 0.2862622697706619 -0.10079699754714966
v -0.18554982542991638 0.27851840451912074 -0.10079699754714966
v 0.17491480708122253 -0.1826360116843781 0.10079699754714966
v 0.17491480708122253 -0.1826360116843781 -0.10079699754714966
v 0.2068677693605423 -0.1748911033515534 0.10079699754714966
v 0.2068677693605423 -0.1748911033515534 0.10079699754714966
v 0.17491480708122253 -0.1826360116843781 -0.10079699754714966
v 0.2068677693605423 -0.1748911033515534 -0.10079699754714966
v 0.08130931854248047 0.34319242433265834 0.10079699754714966
v 0.08130931854248047 0.34319242433265834 -0.10079699754714966
v 0.04935624822974205 0.33544849947647243 0.10079699754714966
v 0.04935624822974205 0.33544849947647243 0.10079699754714966
v 0.08130931854248047 0.34319242433265834 -0.10079699754714966
v 0.04935624822974205 0.33544849947647243 -0.10079699754714966
v -0.18554982542991638 0.27851840451912074 0.10079699754714966
v -0.18554982542991638 0.27851840451912074 -0.10079699754714966
v -0.19373276829719543 0.17523245111660152 0.10079699754714966
v -0.19373276829719543 0.17523245111660152 0.10079699754714966
v -0.18554982542991638 0.27851840451912074 -0.10079699754714966
v -0.19373276829719543 0.17523245111660152 -0.10079699754714966
v -0.19373276829719543 0.17523245111660152 0.10079699754714966
v -0.19373276829719543 0.17523245111660152 -0.10079699754714966
v -0.18876484036445618 0.061133991634408524 0.10079699754714966
v -0.18876484036445618 0.061133991634408524 0.10079699754714966
v -0.19373276829719543 0.17523245111660152 -0.10079699754714966
v -0.18876484036445618 0.061133991634408524 -0.10079699754714966
v -0.18876484036445618 0.061133991634408524 -0.10079699754714966
v -0.1623712033033371 -0.047772394785722205 0.10079699754714966
v -0.18876484036445618 0.061133991634408524 0.10079699754714966
v -0.1623712033033371 -0.047772394785722205 0.10079699754714966
v -0.18876484036445618 0.061133991634408524 -0.10079699754714966
v -0.1623712033033371 -0.047772394785722205 -0.10079699754714966
v -0.1623712033033371 -0.047772394785722205 0.10079699754714966
v -0.1623712033033371 -0.047772394785722205 -0.10079699754714966
v -0.1145520806312561 -0.15148473187728734 0.10079699754714966
v -0.1145520806312561 -0.15148473187728734 0.10079699754714966
v -0.1623712033033371 -0.047772394785722205 -0.10079699754714966
v -0.1145520806312561 -0.15148473187728734 -0.10079699754714966
v -0.1145520806312561 -0.15148473187728734 0.10079699754714966
v -0.1145520806312561 -0.15148473187728734 -0.10079699754714966
v -0.059991344809532166 -0.2395651082639298 0.10079699754714966
v -0.059991344809532166 -0.2395651082639298 0.10079699754714966
v -0.1145520806312561 -0.15148473187728734 -0.10079699754714966
v -0.059991344809532166 -0.2395651082639298 -0.10079699754714966
v 0.07312636822462082 0.23990645602897792 0.10079699754714966
v 0.07312636822462082 0.23990645602897792 -0.10079699754714966
v 0.08130931854248047 0.34319242433265834 0.10079699754714966
v 0.08130931854248047 0.34319242433265834 0.10079699754714966
v 0.07312636822462082 0.23990645602897792 -0.10079699754714966
v 0.08130931854248047 0.34319242433265834 -0.10079699754714966
v 0.07312636822462082 0.23990645602897792 0.10079699754714966
v 0.07809430360794067 0.12580801144794612 -0.10079699754714966
v 0.07312636822462082 0.23990645602897792 -0.10079699754714966
v 0.07809430360794067 0.12580801144794612 0.10079699754714966
v 0.07809430360794067 0.12580801144794612 -0.10079699754714966
v 0.07312636822462082 0.23990645602897792 0.10079699754714966
v 0.07809430360794067 0.12580801144794612 0.10079699754714966
v 0.10448791831731796 0.016901623165170243 -0.10079699754714966
v 0.07809430360794067 0.12580801144794612 -0.10079699754714966
v 0.10448791831731796 0.016901623165170243 0.10079699754714966
v 0.10448791831731796 0.016901623165170243 -0.10079699754714966
v 0.07809430360794067 0.12580801144794612 0.10079699754714966
v 0.10448791831731796 0.016901623165170243 0.10079699754714966
v 0.15230704843997955 -0.08681071578904004 -0.10079699754714966
v 0.10448791831731796 0.016901623165170243 -0.10079699754714966
v 0.15230704843997955 -0.08681071578904004 0.10079699754714966
v 0.15230704843997955 -0.08681071578904004 -0.10079699754714966
v 0.10448791831731796 0.016901623165170243 0.10079699754714966
v 0.15230704843997955 -0.08681071578904004 0.10079699754714966
v 0.2068677693605423 -0.1748911033515534 -0.10079699754714966
v 0.15230704843997955 -0.08681071578904004 -0.10079699754714966
v 0.2068677693605423 -0.1748911033515534 0.10079699754714966
v 0.2068677693605423 -0.1748911033515534 -0.10079699754714966
v 0.15230704843997955 -0.08681071578904004 0.10079699754714966
v -0.04432666301727295 0.21144142345146327 -0.10079699754714966
v -0.06809686124324799 0.3069844503755966 -0.10079699754714966
v -0.0361437126994133 0.3147273917551437 -0.10079699754714966
v -0.06809686124324799 0.3069844503755966 -0.10079699754714966
v -0.04432666301727295 0.21144142345146327 -0.10079699754714966
v -0.07627973705530167 0.20369749859527736 -0.10079699754714966
v -0.039358727633953094 0.09734296396927028 -0.10079699754714966
v -0.07627973705530167 0.20369749859527736 -0.10079699754714966
v -0.04432666301727295 0.21144142345146327 -0.10079699754714966
v -0.07627973705530167 0.20369749859527736 -0.10079699754714966
v -0.039358727633953094 0.09734296396927028 -0.10079699754714966
v -0.07131079584360123 0.08959912852005153 -0.10079699754714966
v -0.012965109199285507 -0.0115634243135056 -0.10079699754714966
v -0.07131079584360123 0.08959912852005153 -0.10079699754714966
v -0.039358727633953094 0.09734296396927028 -0.10079699754714966
v -0.07131079584360123 0.08959912852005153 -0.10079699754714966
v -0.012965109199285507 -0.0115634243135056 -0.10079699754714966
v -0.0449172668159008 -0.01930626883550496 -0.10079699754714966
v 0.0029009543359279633 -0.1230196843986115 -0.10079699754714966
v -0.0449172668159008 -0.01930626883550496 -0.10079699754714966
v -0.012965109199285507 -0.0115634243135056 -0.10079699754714966
v -0.012965109199285507 -0.0115634243135056 -0.10079699754714966
v 0.03485410660505295 -0.11527675792022557 -0.10079699754714966
v 0.0029009543359279633 -0.1230196843986115 -0.10079699754714966
v 0.05746176466345787 -0.21110104426189275 -0.10079699754714966
v 0.0029009543359279633 -0.1230196843986115 -0.10079699754714966
v 0.03485410660505295 -0.11527675792022557 -0.10079699754714966
v 0.03485410660505295 -0.11527675792022557 -0.10079699754714966
v 0.08941475301980972 -0.20335615083022923 -0.10079699754714966
v 0.05746176466345787 -0.21110104426189275 -0.10079699754714966
v -0.06809686124324799 0.3069844503755966 0.10079699754714966
v -0.04432666301727295 0.21144142345146327 0.10079699754714966
v -0.0361437126994133 0.3147273917551437 0.10079699754714966
v -0.04432666301727295 0.21144142345146327 0.10079699754714966
v -0.06809686124324799 0.3069844503755966 0.10079699754714966
v -0.07627973705530167 0.20369749859527736 0.10079699754714966
v -0.07627973705530167 0.20369749859527736 0.10079699754714966
v -0.039358727633953094 0.09734296396927028 0.10079699754714966
v -0.04432666301727295 0.21144142345146327 0.10079699754714966
v -0.039358727633953094 0.09734296396927028 0.10079699754714966
v -0.07627973705530167 0.20369749859527736 0.10079699754714966
v -0.07131079584360123 0.08959912852005153 0.10079699754714966
v -0.07131079584360123 0.08959912852005153 0.10079699754714966
v -0.012965109199285507 -0.0115634243135056 0.10079699754714966
v -0.039358727633953094 0.09734296396927028 0.10079699754714966
v -0.012965109199285507 -0.0115634243135056 0.10079699754714966
v -0.07131079584360123 0.08959912852005153 0.10079699754714966
v -0.0449172668159008 -0.01930626883550496 0.10079699754714966
v 0.0029009543359279633 -0.1230196843986115 0.10079699754714966
v -0.012965109199285507 -0.0115634243135056 0.10079699754714966
v -0.0449172668159008 -0.01930626883550496 0.10079699754714966
v -0.012965109199285507 -0.0115634243135056 0.10079699754714966
v 0.0029009543359279633 -0.1230196843986115 0.10079699754714966
v 0.03485410660505295 -0.11527675792022557 0.10079699754714966
v 0.05746176466345787 -0.21110104426189275 0.10079699754714966
v 0.03485410660505295 -0.11527675792022557 0.10079699754714966
v 0.0029009543359279633 -0.1230196843986115 0.10079699754714966
v 0.03485410660505295 -0.11527675792022557 0.10079699754714966
v 0.05746176466345787 -0.21110104426189275 0.10079699754714966
v 0.08941475301980972 -0.20335615083022923 0.10079699754714966
v -0.1617806851863861 0.18297628656582027 -0.10079699754714966
v -0.18554982542991638 0.27851840451912074 -0.10079699754714966
v -0.15359774231910706 0.2862622697706619 -0.10079699754714966
v -0.18554982542991638 0.27851840451912074 -0.10079699754714966
v -0.1617806851863861 0.18297628656582027 -0.10079699754714966
v -0.19373276829719543 0.17523245111660152 -0.10079699754714966
v -0.15681175887584686 0.06887791649059444 -0.10079699754714966
v -0.19373276829719543 0.17523245111660152 -0.10079699754714966
v -0.1617806851863861 0.18297628656582027 -0.10079699754714966
v -0.19373276829719543 0.17523245111660152 -0.10079699754714966
v -0.15681175887584686 0.06887791649059444 -0.10079699754714966
v -0.18876484036445618 0.061133991634408524 -0.10079699754714966
v -0.13041815161705017 -0.04002847295633466 -0.10079699754714966
v -0.18876484036445618 0.061133991634408524 -0.10079699754714966
v -0.15681175887584686 0.06887791649059444 -0.10079699754714966
v -0.18876484036445618 0.061133991634408524 -0.10079699754714966
v -0.13041815161705017 -0.04002847295633466 -0.10079699754714966
v -0.1623712033033371 -0.047772394785722205 -0.10079699754714966
v -0.1145520806312561 -0.15148473187728734 -0.10079699754714966
v -0.1623712033033371 -0.047772394785722205 -0.10079699754714966
v -0.13041815161705017 -0.04002847295633466 -0.10079699754714966
v -0.13041815161705017 -0.04002847295633466 -0.10079699754714966
v -0.08259992301464081 -0.14374188735528798 -0.10079699754714966
v -0.1145520806312561 -0.15148473187728734 -0.10079699754714966
v -0.059991344809532166 -0.2395651082639298 -0.10079699754714966
v -0.1145520806312561 -0.15148473187728734 -0.10079699754714966
v -0.08259992301464081 -0.14374188735528798 -0.10079699754714966
v -0.08259992301464081 -0.14374188735528798 -0.10079699754714966
v -0.028039192780852318 -0.23182227119251103 -0.10079699754714966
v -0.059991344809532166 -0.2395651082639298 -0.10079699754714966
v -0.18554982542991638 0.27851840451912074 0.10079699754714966
v -0.1617806851863861 0.18297628656582027 0.10079699754714966
v -0.15359774231910706 0.2862622697706619 0.10079699754714966
v -0.1617806851863861 0.18297628656582027 0.10079699754714966
v -0.18554982542991638 0.27851840451912074 0.10079699754714966
v -0.19373276829719543 0.17523245111660152 0.10079699754714966
v -0.19373276829719543 0.17523245111660152 0.10079699754714966
v -0.15681175887584686 0.06887791649059444 0.10079699754714966
v -0.1617806851863861 0.18297628656582027 0.10079699754714966
v -0.15681175887584686 0.06887791649059444 0.10079699754714966
v -0.19373276829719543 0.17523245111660152 0.10079699754714966
v -0.18876484036445618 0.061133991634408524 0.10079699754714966
v -0.18876484036445618 0.061133991634408524 0.10079699754714966
v -0.13041815161705017 -0.04002847295633466 0.10079699754714966
v -0.15681175887584686 0.06887791649059444 0.10079699754714966
v -0.13041815161705017 -0.04002847295633466 0.10079699754714966
v -0.18876484036445618 0.061133991634408524 0.10079699754714966
v -0.1623712033033371 -0.047772394785722205 0.10079699754714966
v -0.1145520806312561 -0.15148473187728734 0.10079699754714966
v -0.13041815161705017 -0.04002847295633466 0.10079699754714966
v -0.1623712033033371 -0.047772394785722205 0.10079699754714966
v -0.13041815161705017 -0.04002847295633466 0.10079699754714966
v -0.1145520806312561 -0.15148473187728734 0.10079699754714966
v -0.08259992301464081 -0.14374188735528798 0.10079699754714966
v -0.059991344809532166 -0.2395651082639298 0.10079699754714966
v -0.08259992301464081 -0.14374188735528798 0.10079699754714966
v -0.1145520806312561 -0.15148473187728734 0.10079699754714966
v -0.08259992301464081 -0.14374188735528798 0.10079699754714966
v -0.059991344809532166 -0.2395651082639298 0.10079699754714966
v -0.028039192780852318 -0.23182227119251103 0.10079699754714966
v 0.07312636822462082 0.23990645602897792 -0.10079699754714966
v 0.04935624822974205 0.33544849947647243 -0.10079699754714966
v 0.08130931854248047 0.34319242433265834 -0.10079699754714966
v 0.04935624822974205 0.33544849947647243 -0.10079699754714966
v 0.07312636822462082 0.23990645602897792 -0.10079699754714966
v 0.0411732979118824 0.232162531172792 -0.10079699754714966
v 0.07809430360794067 0.12580801144794612 -0.10079699754714966
v 0.0411732979118824 0.232162531172792 -0.10079699754714966
v 0.07312636822462082 0.23990645602897792 -0.10079699754714966
v 0.0411732979118824 0.232162531172792 -0.10079699754714966
v 0.07809430360794067 0.12580801144794612 -0.10079699754714966
v 0.04614223167300224 0.11806417599872737 -0.10079699754714966
v 0.10448791831731796 0.016901623165170243 -0.10079699754714966
v 0.04614223167300224 0.11806417599872737 -0.10079699754714966
v 0.07809430360794067 0.12580801144794612 -0.10079699754714966
v 0.04614223167300224 0.11806417599872737 -0.10079699754714966
v 0.10448791831731796 0.016901623165170243 -0.10079699754714966
v 0.07253585010766983 0.009157783990661195 -0.10079699754714966
v 0.1203540712594986 -0.09455563529773564 -0.10079699754714966
v 0.07253585010766983 0.009157783990661195 -0.10079699754714966
v 0.10448791831731796 0.016901623165170243 -0.10079699754714966
v 0.10448791831731796 0.016901623165170243 -0.10079699754714966
v 0.15230704843997955 -0.08681071578904004 -0.10079699754714966
v 0.1203540712594986 -0.09455563529773564 -0.10079699754714966
v 0.17491480708122253 -0.1826360116843781 -0.10079699754714966
v 0.1203540712594986 -0.09455563529773564 -0.10079699754714966
v 0.15230704843997955 -0.08681071578904004 -0.10079699754714966
v 0.15230704843997955 -0.08681071578904004 -0.10079699754714966
v 0.2068677693605423 -0.1748911033515534 -0.10079699754714966
v 0.17491480708122253 -0.1826360116843781 -0.10079699754714966
v 0.04935624822974205 0.33544849947647243 0.10079699754714966
v 0.07312636822462082 0.23990645602897792 0.10079699754714966
v 0.08130931854248047 0.34319242433265834 0.10079699754714966
v 0.07312636822462082 0.23990645602897792 0.10079699754714966
v 0.04935624822974205 0.33544849947647243 0.10079699754714966
v 0.0411732979118824 0.232162531172792 0.10079699754714966
v 0.0411732979118824 0.232162531172792 0.10079699754714966
v 0.07809430360794067 0.12580801144794612 0.10079699754714966
v 0.07312636822462082 0.23990645602897792 0.10079699754714966
v 0.07809430360794067 0.12580801144794612 0.10079699754714966
v 0.0411732979118824 0.232162531172792 0.10079699754714966
v 0.04614223167300224 0.11806417599872737 0.10079699754714966
v 0.04614223167300224 0.11806417599872737 0.10079699754714966
v 0.10448791831731796 0.016901623165170243 0.10079699754714966
v 0.07809430360794067 0.12580801144794612 0.10079699754714966
v 0.10448791831731796 0.016901623165170243 0.10079699754714966
v 0.04614223167300224 0.11806417599872737 0.10079699754714966
v 0.07253585010766983 0.009157783990661195 0.10079699754714966
v 0.1203540712594986 -0.09455563529773564 0.10079699754714966
v 0.10448791831731796 0.016901623165170243 0.10079699754714966
v 0.07253585010766983 0.009157783990661195 0.10079699754714966
v 0.10448791831731796 0.016901623165170243 0.10079699754714966
v 0.1203540712594986 -0.09455563529773564 0.10079699754714966
v 0.15230704843997955 -0.08681071578904004 0.10079699754714966
v 0.17491480708122253 -0.1826360116843781 0.10079699754714966
v 0.15230704843997955 -0.08681071578904004 0.10079699754714966
v 0.1203540712594986 -0.09455563529773564 0.10079699754714966
v 0.15230704843997955 -0.08681071578904004 0.10079699754714966
v 0.17491480708122253 -0.1826360116843781 0.10079699754714966
v 0.2068677693605423 -0.1748911033515534 0.10079699754714966
v -0.06809686124324799 0.3069844503755966 -0.10079699754714966
v -0.07627973705530167 0.20369749859527736 0.10079699754714966
v -0.06809686124324799 0.3069844503755966 0.10079699754714966
v -0.07627973705530167 0.20369749859527736 0.10079699754714966
v -0.06809686124324799 0.3069844503755966 -0.10079699754714966
v -0.07627973705530167 0.20369749859527736 -0.10079699754714966
v -0.07627973705530167 0.20369749859527736 0.10079699754714966
v -0.07627973705530167 0.20369749859527736 -0.10079699754714966
v -0.07131079584360123 0.08959912852005153 0.10079699754714966
v -0.07131079584360123 0.08959912852005153 0.10079699754714966
v -0.07627973705530167 0.20369749859527736 -0.10079699754714966
v -0.07131079584360123 0.08959912852005153 -0.10079699754714966
v -0.07131079584360123 0.08959912852005153 0.10079699754714966
v -0.07131079584360123 0.08959912852005153 -0.10079699754714966
v -0.0449172668159008 -0.01930626883550496 0.10079699754714966
v -0.0449172668159008 -0.01930626883550496 0.10079699754714966
v -0.07131079584360123 0.08959912852005153 -0.10079699754714966
v -0.0449172668159008 -0.01930626883550496 -0.10079699754714966
v -0.0449172668159008 -0.01930626883550496 0.10079699754714966
v -0.0449172668159008 -0.01930626883550496 -0.10079699754714966
v 0.0029009543359279633 -0.1230196843986115 0.10079699754714966
v 0.0029009543359279633 -0.1230196843986115 0.10079699754714966
v -0.0449172668159008 -0.01930626883550496 -0.10079699754714966
v 0.0029009543359279633 -0.1230196843986115 -0.10079699754714966
v 0.0029009543359279633 -0.1230196843986115 0.10079699754714966
v 0.0029009543359279633 -0.1230196843986115 -0.10079699754714966
v 0.05746176466345787 -0.21110104426189275 0.10079699754714966
v 0.05746176466345787 -0.21110104426189275 0.10079699754714966
v 0.0029009543359279633 -0.1230196843986115 -0.10079699754714966
v 0.05746176466345787 -0.21110104426189275 -0.10079699754714966
v -0.04432666301727295 0.21144142345146327 0.10079699754714966
v -0.04432666301727295 0.21144142345146327 -0.10079699754714966
v -0.0361437126994133 0.3147273917551437 0.10079699754714966
v -0.0361437126994133 0.3147273917551437 0.10079699754714966
v -0.04432666301727295 0.21144142345146327 -0.10079699754714966
v -0.0361437126994133 0.3147273917551437 -0.10079699754714966
v -0.04432666301727295 0.21144142345146327 0.10079699754714966
v -0.039358727633953094 0.09734296396927028 -0.10079699754714966
v -0.04432666301727295 0.21144142345146327 -0.10079699754714966
v -0.039358727633953094 0.09734296396927028 0.10079699754714966
v -0.039358727633953094 0.09734296396927028 -0.10079699754714966
v -0.04432666301727295 0.21144142345146327 0.10079699754714966
v -0.039358727633953094 0.09734296396927028 0.10079699754714966
v -0.012965109199285507 -0.0115634243135056 -0.10079699754714966
v -0.039358727633953094 0.09734296396927028 -0.10079699754714966
v -0.012965109199285507 -0.0115634243135056 0.10079699754714966
v -0.012965109199285507 -0.0115634243135056 -0.10079699754714966
v -0.039358727633953094 0.09734296396927028 0.10079699754714966
v -0.012965109199285507 -0.0115634243135056 0.10079699754714966
v 0.03485410660505295 -0.11527675792022557 -0.10079699754714966
v -0.012965109199285507 -0.0115634243135056 -0.10079699754714966
v 0.03485410660505295 -0.11527675792022557 0.10079699754714966
v 0.03485410660505295 -0.11527675792022557 -0.10079699754714966
v -0.012965109199285507 -0.0115634243135056 0.10079699754714966
v 0.03485410660505295 -0.11527675792022557 0.10079699754714966
v 0.08941475301980972 -0.20335615083022923 -0.10079699754714966
v 0.03485410660505295 -0.11527675792022557 -0.10079699754714966
v 0.08941475301980972 -0.20335615083022923 0.10079699754714966
v 0.08941475301980972 -0.20335615083022923 -0.10079699754714966
v 0.03485410660505295 -0.11527675792022557 0.10079699754714966
v 0.04935624822974205 0.33544849947647243 0.10079699754714966
v 0.04935624822974205 0.33544849947647243 -0.10079699754714966
v 0.0411732979118824 0.232162531172792 0.10079699754714966
v 0.0411732979118824 0.232162531172792 0.10079699754714966
v 0.04935624822974205 0.33544849947647243 -0.10079699754714966
v 0.0411732979118824 0.232162531172792 -0.10079699754714966
v 0.0411732979118824 0.232162531172792 0.10079699754714966
v 0.0411732979118824 0.232162531172792 -0.10079699754714966
v 0.04614223167300224 0.11806417599872737 0.10079699754714966
v 0.04614223167300224 0.11806417599872737 0.10079699754714966
v 0.0411732979118824 0.232162531172792 -0.10079699754714966
v 0.04614223167300224 0.11806417599872737 -0.10079699754714966
v 0.04614223167300224 0.11806417599872737 0.10079699754714966
v 0.04614223167300224 0.11806417599872737 -0.10079699754714966
v 0.07253585010766983 0.009157783990661195 0.10079699754714966
v 0.07253585010766983 0.009157783990661195 0.10079699754714966
v 0.04614223167300224 0.11806417599872737 -0.10079699754714966
v 0.07253585010766983 0.009157783990661195 -0.10079699754714966
v 0.07253585010766983 0.009157783990661195 0.10079699754714966
v 0.07253585010766983 0.009157783990661195 -0.10079699754714966
v 0.1203540712594986 -0.09455563529773564 0.10079699754714966
v 0.1203540712594986 -0.09455563529773564 0.10079699754714966
v 0.07253585010766983 0.009157783990661195 -0.10079699754714966
v 0.1203540712594986 -0.09455563529773564 -0.10079699754714966
v 0.1203540712594986 -0.09455563529773564 0.10079699754714966
v 0.1203540712594986 -0.09455563529773564 -0.10079699754714966
v 0.17491480708122253 -0.1826360116843781 0.10079699754714966
v 0.17491480708122253 -0.1826360116843781 0.10079699754714966
v 0.1203540712594986 -0.09455563529773564 -0.10079699754714966
v 0.17491480708122253 -0.1826360116843781 -0.10079699754714966
v -0.1617806851863861 0.18297628656582027 0.10079699754714966
v -0.1617806851863861 0.18297628656582027 -0.10079699754714966
v -0.15359774231910706 0.2862622697706619 0.10079699754714966
v -0.15359774231910706 0.2862622697706619 0.10079699754714966
v -0.1617806851863861 0.18297628656582027 -0.10079699754714966
v -0.15359774231910706 0.2862622697706619 -0.10079699754714966
v -0.1617806851863861 0.18297628656582027 0.10079699754714966
v -0.15681175887584686 0.06887791649059444 -0.10079699754714966
v -0.1617806851863861 0.18297628656582027 -0.10079699754714966
v -0.15681175887584686 0.06887791649059444 0.10079699754714966
v -0.15681175887584686 0.06887791649059444 -0.10079699754714966
v -0.1617806851863861 0.18297628656582027 0.10079699754714966
v -0.15681175887584686 0.06887791649059444 0.10079699754714966
v -0.13041815161705017 -0.04002847295633466 -0.10079699754714966
v -0.15681175887584686 0.06887791649059444 -0.10079699754714966
v -0.13041815161705017 -0.04002847295633466 0.10079699754714966
v -0.13041815161705017 -0.04002847295633466 -0.10079699754714966
v -0.15681175887584686 0.06887791649059444 0.10079699754714966
v -0.13041815161705017 -0.04002847295633466 0.10079699754714966
v -0.08259992301464081 -0.14374188735528798 -0.10079699754714966
v -0.13041815161705017 -0.04002847295633466 -0.10079699754714966
v -0.08259992301464081 -0.14374188735528798 0.10079699754714966
v -0.08259992301464081 -0.14374188735528798 -0.10079699754714966
v -0.13041815161705017 -0.04002847295633466 0.10079699754714966
v -0.08259992301464081 -0.14374188735528798 0.10079699754714966
v -0.028039192780852318 -0.23182227119251103 -0.10079699754714966
v -0.08259992301464081 -0.14374188735528798 -0.10079699754714966
v -0.028039192780852318 -0.23182227119251103 0.10079699754714966
v -0.028039192780852318 -0.23182227119251103 -0.10079699754714966
v -0.08259992301464081 -0.14374188735528798 0.10079699754714966
vt 0 0
vt 0 0
vt 0 0
vt 0 0
vt 0 0
vt 0 0
vt 0 0
vt 0 0
vt 0 0
vt 0 0
vt 0 0
vt 0 0
vt 0 0
vt 0 0
vt 0 0
vt 0 0
vt 0 0
vt 0 0
vt 0 0
vt 0 0
vt 0 0
vt 0 0
vt 0 0
vt 0 0
vt 0 0
vt 0 0
vt 0 0
vt 0 0
vt 0 0
vt 0 0
vt 0 0
vt 0 0
vt 0 0
vt 0 0
vt 0 0
vt 0 0
vt 0 0
vt 0 0
vt 0 0
vt 0 0
vt 0 0
vt 0 0
vt 0 0
vt 0 0
vt 0 0
vt 0 0
vt 0 0
vt 0 0
vt 0 0
vt 0 0
vt 0 0
vt 0 0
vt 0 0
vt 0 0
vt 0 0
vt 0 0
vt 0 0
vt 0 0
vt 0 0
vt 0 0
vt 0 0
vt 0 0
vt 0 0
vt 0 0
vt 0 0
vt 0 0
vt 0 0
vt 0 0
vt 0 0
vt 0 0
vt 0 0
vt 0 0
vt 0 0
vt 0 0
vt 0 0
vt 0 0
vt 0 0
vt 0 0
vt 0 0
vt 0 0
vt 0 0
vt 0 0
vt 0 0
vt 0 0
vt 0 0
vt 0 0
vt 0 0
vt 0 0
vt 0 0
vt 0 0
vt 0 0
vt 0 0
vt 0 0
vt 0 0
vt 0 0
vt 0 0
vt 0 0
vt 0 0
vt 0 0
vt 0 0
vt 0 0
vt 0 0
vt 0 0
vt 0 0
vt 0 0
vt 0 0
vt 0 0
vt 0 0
vt 0 0
vt 0 0
vt 0 0
vt 0 0
vt 0 0
vt 0 0
vt 0 0
vt 0 0
vt 0 0
vt 0 0
vt 0 0
vt 0 0
vt 0 0
vt 0 0
vt 0 0
vt 0 0
vt 0 0
vt 0 0
vt 0 0
vt 0 0
vt 0 0
vt 0 0
vt 0 0
vt 0 0
vt 0 0
vt 0 0
vt 0 0
vt 0 0
vt 0 0
vt 0 0
vt 0 0
vt 0 0
vt 0 0
vt 0 0
vt 0 0
vt 0 0
vt 0 0
vt 0 0
vt 0 0
vt 0 0
vt 0 0
vt 0 0
vt 0 0
vt 0 0
vt 0 0
vt 0 0
vt 0 0
vt 0 0
vt 0 0
vt 0 0
vt 0 0
vt 0 0
vt 0 0
vt 0 0
vt 0 0
vt 0 0
vt 0 0
vt 0 0
vt 0 0
vt 0 0
vt 0 0
vt 0 0
vt 0 0
vt 0 0
vt 0 0
vt 0 0
vt 0 0
vt 0 0
vt 0 0
vt 0 0
vt 0 0
vt 0 0
vt 0 0
vt 0 0
vt 0 0
vt 0 0
vt 0 0
vt 0 0
vt 0 0
vt 0 0
vt 0 0
vt 0 0
vt 0 0
vt 0 0
vt 0 0
vt 0 0
vt 0 0
vt 0 0
vt 0 0
vt 0 0
vt 0 0
vt 0 0
vt 0 0
vt 0 0
vt 0 0
vt 0 0
vt 0 0
vt 0 0
vt 0 0
vt 0 0
vt 0 0
vt 0 0
vt 0 0
vt 0 0
vt 0 0
vt 0 0
vt 0 0
vt 0 0
vt 0 0
vt 0 0
vt 0 0
vt 0 0
vt 0 0
vt 0 0
vt 0 0
vt 0 0
vt 0 0
vt 0 0
vt 0 0
vt 0 0
vt 0 0
vt 0 0
vt 0 0
vt 0 0
vt 0 0
vt 0 0
vt 0 0
vt 0 0
vt 0 0
vt 0 0
vt 0 0
vt 0 0
vt 0 0
vt 0 0
vt 0 0
vt 0 0
vt 0 0
vt 0 0
vt 0 0
vt 0 0
vt 0 0
vt 0 0
vt 0 0
vt 0 0
vt 0 0
vt 0 0
vt 0 0
vt 0 0
vt 0 0
vt 0 0
vt 0 0
vt 0 0
vt 0 0
vt 0 0
vt 0 0
vt 0 0
vt 0 0
vt 0 0
vt 0 0
vt 0 0
vt 0 0
vt 0 0
vt 0 0
vt 0 0
vt 0 0
vt 0 0
vt 0 0
vt 0 0
vt 0 0
vt 0 0
vt 0 0
vt 0 0
vt 0 0
vt 0 0
vt 0 0
vt 0 0
vt 0 0
vt 0 0
vt 0 0
vt 0 0
vt 0 0
vt 0 0
vt 0 0
vt 0 0
vt 0 0
vt 0 0
vt 0 0
vt 0 0
vt 0 0
vt 0 0
vt 0 0
vt 0 0
vt 0 0
vt 0 0
vt 0 0
vt 0 0
vt 0 0
vt 0 0
vt 0 0
vt 0 0
vt 0 0
vt 0 0
vt 0 0
vt 0 0
vt 0 0
vt 0 0
vt 0 0
vt 0 0
vt 0 0
vt 0 0
vt 0 0
vt 0 0
vt 0 0
vt 0 0
vt 0 0
vt 0 0
vt 0 0
vt 0 0
vt 0 0
vt 0 0
vt 0 0
vt 0 0
vt 0 0
vt 0 0
vt 0 0
vt 0 0
vt 0 0
vt 0 0
vt 0 0
vt 0 0
vt 0 0
vt 0 0
vt 0 0
vt 0 0
vt 0 0
vt 0 0
vt 0 0
vt 0 0
vt 0 0
vt 0 0
vt 0 0
vt 0 0
vt 0 0
vt 0 0
vt 0 0
vt 0 0
vt 0 0
vt 0 0
vt 0 0
vt 0 0
vt 0 0
vt 0 0
vt 0 0
vt 0 0
vt 0 0
vt 0 0
vt 0 0
vt 0 0
vt 0 0
vt 0 0
vt 0 0
vt 0 0
vt 0 0
vt 0 0
vt 0 0
vt 0 0
vt 0 0
vt 0 0
vt 0 0
vt 0 0
vt 0 0
vt 0 0
vt 0 0
vt 0 0
vt 0 0
vt 0 0
vt 0 0
vt 0 0
vt 0 0
vt 0 0
vt 0 0
vt 0 0
vt 0 0
vt 0 0
vt 0 0
vt 0 0
vt 0 0
vt 0 0
vn 0.235544515956621 -0.9718635608987309 2.884588548405625e-17
vn 0.235544515956621 -0.9718635608987309 2.884588548405625e-17
vn 0.235544515956621 -0.9718635608987309 2.884588548405625e-17
vn 0.235544515956621 -0.9718635608987309 2.884588548405625e-17
vn 0.235544515956621 -0.9718635608987309 2.884588548405625e-17
vn 0.235544515956621 -0.9718635608987309 2.884588548405625e-17
vn -0.235544515956621 0.9718635608987309 -2.884588548405625e-17
vn -0.235544515956621 0.9718635608987309 -2.884588548405625e-17
vn -0.235544515956621 0.9718635608987309 -2.884588548405625e-17
vn -0.235544515956621 0.9718635608987309 -2.884588548405625e-17
vn -0.235544515956621 0.9718635608987309 -2.884588548405625e-17
vn -0.235544515956621 0.9718635608987309 -2.884588548405625e-17
vn 0.235544515956621 -0.9718635608987309 2.884588548405625e-17
vn 0.235544515956621 -0.9718635608987309 2.884588548405625e-17
vn 0.235544515956621 -0.9718635608987309 2.884588548405625e-17
vn 0.235544515956621 -0.9718635608987309 2.884588548405625e-17
vn 0.235544515956621 -0.9718635608987309 2.884588548405625e-17
vn 0.235544515956621 -0.9718635608987309 2.884588548405625e-17
vn -0.235544515956621 0.9718635608987309 -2.884588548405625e-17
vn -0.235544515956621 0.9718635608987309 -2.884588548405625e-17
vn -0.235544515956621 0.9718635608987309 -2.884588548405625e-17
vn -0.235544515956621 0.9718635608987309 -2.884588548405625e-17
vn -0.235544515956621 0.9718635608987309 -2.884588548405625e-17
vn -0.235544515956621 0.9718635608987309 -2.884588548405625e-17
vn 0.235544515956621 -0.9718635608987309 2.884588548405625e-17
vn 0.235544515956621 -0.9718635608987309 2.884588548405625e-17
vn 0.235544515956621 -0.9718635608987309 2.884588548405625e-17
vn 0.235544515956621 -0.9718635608987309 2.884588548405625e-17
vn 0.235544515956621 -0.9718635608987309 2.884588548405625e-17
vn 0.235544515956621 -0.9718635608987309 2.884588548405625e-17
vn -0.235544515956621 0.9718635608987309 -2.884588548405625e-17
vn -0.235544515956621 0.9718635608987309 -2.884588548405625e-17
vn -0.235544515956621 0.9718635608987309 -2.884588548405625e-17
vn -0.235544515956621 0.9718635608987309 -2.884588548405625e-17
vn -0.235544515956621 0.9718635608987309 -2.884588548405625e-17
vn -0.235544515956621 0.9718635608987309 -2.884588548405625e-17
vn -0.9968780783212579 0.07895629780148113 -1.2208235463535545e-16
vn -0.9968780783212579 0.07895629780148113 -1.2208235463535545e-16
vn -0.9998361573165614 0.018101340349598368 -1.2244462244962695e-16
vn -0.9998361573165614 0.018101340349598368 -1.2244462244962695e-16
vn -0.9968780783212579 0.07895629780148113 -1.2208235463535545e-16
vn -0.9998361573165614 0.018101340349598368 -1.2244462244962695e-16
vn -0.9998361573165614 0.018101340349598368 -1.2244462244962695e-16
vn -0.9998361573165614 0.018101340349598368 -1.2244462244962695e-16
vn -0.9900611667236552 -0.14063742796920947 -1.2124752572861045e-16
vn -0.9900611667236552 -0.14063742796920947 -1.2124752572861045e-16
vn -0.9998361573165614 0.018101340349598368 -1.2244462244962695e-16
vn -0.9900611667236552 -0.14063742796920947 -1.2124752572861045e-16
vn -0.9900611667236552 -0.14063742796920947 -1.2124752572861045e-16
vn -0.943726477583713 -0.3307269803137289 -1.155731587284187e-16
vn -0.9900611667236552 -0.14063742796920947 -1.2124752572861045e-16
vn -0.943726477583713 -0.3307269803137289 -1.155731587284187e-16
vn -0.9900611667236552 -0.14063742796920947 -1.2124752572861045e-16
vn -0.943726477583713 -0.3307269803137289 -1.155731587284187e-16
vn -0.943726477583713 -0.3307269803137289 -1.155731587284187e-16
vn -0.943726477583713 -0.3307269803137289 -1.155731587284187e-16
vn -0.8800825899902571 -0.47482063434105404 -1.0777903104374279e-16
vn -0.8800825899902571 -0.47482063434105404 -1.0777903104374279e-16
vn -0.943726477583713 -0.3307269803137289 -1.155731587284187e-16
vn -0.8800825899902571 -0.47482063434105404 -1.0777903104374279e-16
vn -0.8800825899902571 -0.47482063434105404 -1.0777903104374279e-16
vn -0.8800825899902571 -0.47482063434105404 -1.0777903104374279e-16
vn -0.85012227304219 -0.5265853405456519 -1.0410995113915389e-16
vn -0.85012227304219 -0.5265853405456519 -1.0410995113915389e-16
vn -0.8800825899902571 -0.47482063434105404 -1.0777903104374279e-16
vn -0.85012227304219 -0.5265853405456519 -1.0410995113915389e-16
vn 0.9998361573165614 -0.018101340349598368 1.2244462244962695e-16
vn 0.9998361573165614 -0.018101340349598368 1.2244462244962695e-16
vn 0.9968780783212579 -0.07895629780148113 1.2208235463535545e-16
vn 0.9968780783212579 -0.07895629780148113 1.2208235463535545e-16
vn 0.9998361573165614 -0.018101340349598368 1.2244462244962695e-16
vn 0.9968780783212579 -0.07895629780148113 1.2208235463535545e-16
vn 0.9998361573165614 -0.018101340349598368 1.2244462244962695e-16
vn 0.9900611667236552 0.14063742796920947 1.2124752572861045e-16
vn 0.9998361573165614 -0.018101340349598368 1.2244462244962695e-16
vn 0.9900611667236552 0.14063742796920947 1.2124752572861045e-16
vn 0.9900611667236552 0.14063742796920947 1.2124752572861045e-16
vn 0.9998361573165614 -0.018101340349598368 1.2244462244962695e-16
vn 0.9900611667236552 0.14063742796920947 1.2124752572861045e-16
vn 0.943726477583713 0.3307269803137289 1.155731587284187e-16
vn 0.9900611667236552 0.14063742796920947 1.2124752572861045e-16
vn 0.943726477583713 0.3307269803137289 1.155731587284187e-16
vn 0.943726477583713 0.3307269803137289 1.155731587284187e-16
vn 0.9900611667236552 0.14063742796920947 1.2124752572861045e-16
vn 0.943726477583713 0.3307269803137289 1.155731587284187e-16
vn 0.8800825899902571 0.47482063434105404 1.0777903104374279e-16
vn 0.943726477583713 0.3307269803137289 1.155731587284187e-16
vn 0.8800825899902571 0.47482063434105404 1.0777903104374279e-16
vn 0.8800825899902571 0.47482063434105404 1.0777903104374279e-16
vn 0.943726477583713 0.3307269803137289 1.155731587284187e-16
vn 0.8800825899902571 0.47482063434105404 1.0777903104374279e-16
vn 0.85012227304219 0.5265853405456519 1.0410995113915389e-16
vn 0.8800825899902571 0.47482063434105404 1.0777903104374279e-16
vn 0.85012227304219 0.5265853405456519 1.0410995113915389e-16
vn 0.85012227304219 0.5265853405456519 1.0410995113915389e-16
vn 0.8800825899902571 0.47482063434105404 1.0777903104374279e-16
vn 1.2246468525851679e-16 0 -1
vn 1.2246468525851679e-16 0 -1
vn 1.2246468525851679e-16 0 -1
vn 1.2246468525851679e-16 0 -1
vn 1.2246468525851679e-16 0 -1
vn 1.2246468525851679e-16 0 -1
vn 1.2246468525851679e-16 0 -1
vn 1.2246468525851679e-16 0 -1
vn 1.2246468525851679e-16 0 -1
vn 1.2246468525851679e-16 0 -1
vn 1.2246468525851679e-16 0 -1
vn 1.2246468525851679e-16 0 -1
vn 1.2246468525851679e-16 0 -1
vn 1.2246468525851679e-16 0 -1
vn 1.2246468525851679e-16 0 -1
vn 1.2246468525851679e-16 0 -1
vn 1.2246468525851679e-16 0 -1
vn 1.2246468525851679e-16 0 -1
vn 1.2246468525851679e-16 0 -1
vn 1.2246468525851679e-16 0 -1
vn 1.2246468525851679e-16 0 -1
vn 1.2246468525851679e-16 0 -1
vn 1.2246468525851679e-16 0 -1
vn 1.2246468525851679e-16 0 -1
vn 1.2246468525851679e-16 0 -1
vn 1.2246468525851679e-16 0 -1
vn 1.2246468525851679e-16 0 -1
vn 1.2246468525851679e-16 0 -1
vn 1.2246468525851679e-16 0 -1
vn 1.2246468525851679e-16 0 -1
vn -1.2246468525851679e-16 0 1
vn -1.2246468525851679e-16 0 1
vn -1.2246468525851679e-16 0 1
vn -1.2246468525851679e-16 0 1
vn -1.2246468525851679e-16 0 1
vn -1.2246468525851679e-16 0 1
vn -1.2246468525851679e-16 0 1
vn -1.2246468525851679e-16 0 1
vn -1.2246468525851679e-16 0 1
vn -1.2246468525851679e-16 0 1
vn -1.2246468525851679e-16 0 1
vn -1.2246468525851679e-16 0 1
vn -1.2246468525851679e-16 0 1
vn -1.2246468525851679e-16 0 1
vn -1.2246468525851679e-16 0 1
vn -1.2246468525851679e-16 0 1
vn -1.2246468525851679e-16 0 1
vn -1.2246468525851679e-16 0 1
vn -1.2246468525851679e-16 0 1
vn -1.2246468525851679e-16 0 1
vn -1.2246468525851679e-16 0 1
vn -1.2246468525851679e-16 0 1
vn -1.2246468525851679e-16 0 1
vn -1.2246468525851679e-16 0 1
vn -1.2246468525851679e-16 0 1
vn -1.2246468525851679e-16 0 1
vn -1.2246468525851679e-16 0 1
vn -1.2246468525851679e-16 0 1
vn -1.2246468525851679e-16 0 1
vn -1.2246468525851679e-16 0 1
vn 1.2246468525851679e-16 0 -1
vn 1.2246468525851679e-16 0 -1
vn 1.2246468525851679e-16 0 -1
vn 1.2246468525851679e-16 0 -1
vn 1.2246468525851679e-16 0 -1
vn 1.2246468525851679e-16 0 -1
vn 1.2246468525851679e-16 0 -1
vn 1.2246468525851679e-16 0 -1
vn 1.2246468525851679e-16 0 -1
vn 1.2246468525851679e-16 0 -1
vn 1.2246468525851679e-16 0 -1
vn 1.2246468525851679e-16 0 -1
vn 1.2246468525851679e-16 0 -1
vn 1.2246468525851679e-16 0 -1
vn 1.2246468525851679e-16 0 -1
vn 1.2246468525851679e-16 0 -1
vn 1.2246468525851679e-16 0 -1
vn 1.2246468525851679e-16 0 -1
vn 1.2246468525851679e-16 0 -1
vn 1.2246468525851679e-16 0 -1
vn 1.2246468525851679e-16 0 -1
vn 1.2246468525851679e-16 0 -1
vn 1.2246468525851679e-16 0 -1
vn 1.2246468525851679e-16 0 -1
vn 1.2246468525851679e-16 0 -1
vn 1.2246468525851679e-16 0 -1
vn 1.2246468525851679e-16 0 -1
vn 1.2246468525851679e-16 0 -1
vn 1.2246468525851679e-16 0 -1
vn 1.2246468525851679e-16 0 -1
vn -1.2246468525851679e-16 0 1
vn -1.2246468525851679e-16 0 1
vn -1.2246468525851679e-16 0 1
vn -1.2246468525851679e-16 0 1
vn -1.2246468525851679e-16 0 1
vn -1.2246468525851679e-16 0 1
vn -1.2246468525851679e-16 0 1
vn -1.2246468525851679e-16 0 1
vn -1.2246468525851679e-16 0 1
vn -1.2246468525851679e-16 0 1
vn -1.2246468525851679e-16 0 1
vn -1.2246468525851679e-16 0 1
vn -1.2246468525851679e-16 0 1
vn -1.2246468525851679e-16 0 1
vn -1.2246468525851679e-16 0 1
vn -1.2246468525851679e-16 0 1
vn -1.2246468525851679e-16 0 1
vn -1.2246468525851679e-16 0 1
vn -1.2246468525851679e-16 0 1
vn -1.2246468525851679e-16 0 1
vn -1.2246468525851679e-16 0 1
vn -1.2246468525851679e-16 0 1
vn -1.2246468525851679e-16 0 1
vn -1.2246468525851679e-16 0 1
vn -1.2246468525851679e-16 0 1
vn -1.2246468525851679e-16 0 1
vn -1.2246468525851679e-16 0 1
vn -1.2246468525851679e-16 0 1
vn -1.2246468525851679e-16 0 1
vn -1.2246468525851679e-16 0 1
vn 1.2246468525851679e-16 0 -1
vn 1.2246468525851679e-16 0 -1
vn 1.2246468525851679e-16 0 -1
vn 1.2246468525851679e-16 0 -1
vn 1.2246468525851679e-16 0 -1
vn 1.2246468525851679e-16 0 -1
vn 1.2246468525851679e-16 0 -1
vn 1.2246468525851679e-16 0 -1
vn 1.2246468525851679e-16 0 -1
vn 1.2246468525851679e-16 0 -1
vn 1.2246468525851679e-16 0 -1
vn 1.2246468525851679e-16 0 -1
vn 1.2246468525851679e-16 0 -1
vn 1.2246468525851679e-16 0 -1
vn 1.2246468525851679e-16 0 -1
vn 1.2246468525851679e-16 0 -1
vn 1.2246468525851679e-16 0 -1
vn 1.2246468525851679e-16 0 -1
vn 1.2246468525851679e-16 0 -1
vn 1.2246468525851679e-16 0 -1
vn 1.2246468525851679e-16 0 -1
vn 1.2246468525851679e-16 0 -1
vn 1.2246468525851679e-16 0 -1
vn 1.2246468525851679e-16 0 -1
vn 1.2246468525851679e-16 0 -1
vn 1.2246468525851679e-16 0 -1
vn 1.2246468525851679e-16 0 -1
vn 1.2246468525851679e-16 0 -1
vn 1.2246468525851679e-16 0 -1
vn 1.2246468525851679e-16 0 -1
vn -1.2246468525851679e-16 0 1
vn -1.2246468525851679e-16 0 1
vn -1.2246468525851679e-16 0 1
vn -1.2246468525851679e-16 0 1
vn -1.2246468525851679e-16 0 1
vn -1.2246468525851679e-16 0 1
vn -1.2246468525851679e-16 0 1
vn -1.2246468525851679e-16 0 1
vn -1.2246468525851679e-16 0 1
vn -1.2246468525851679e-16 0 1
vn -1.2246468525851679e-16 0 1
vn -1.2246468525851679e-16 0 1
vn -1.2246468525851679e-16 0 1
vn -1.2246468525851679e-16 0 1
vn -1.2246468525851679e-16 0 1
vn -1.2246468525851679e-16 0 1
vn -1.2246468525851679e-16 0 1
vn -1.2246468525851679e-16 0 1
vn -1.2246468525851679e-16 0 1
vn -1.2246468525851679e-16 0 1
vn -1.2246468525851679e-16 0 1
vn -1.2246468525851679e-16 0 1
vn -1.2246468525851679e-16 0 1
vn -1.2246468525851679e-16 0 1
vn -1.2246468525851679e-16 0 1
vn -1.2246468525851679e-16 0 1
vn -1.2246468525851679e-16 0 1
vn -1.2246468525851679e-16 0 1
vn -1.2246468525851679e-16 0 1
vn -1.2246468525851679e-16 0 1
vn -0.9968780783212579 0.07895629780148113 -1.2208235463535545e-16
vn -0.9998361573165614 0.018101340349598368 -1.2244462244962695e-16
vn -0.9968780783212579 0.07895629780148113 -1.2208235463535545e-16
vn -0.9998361573165614 0.018101340349598368 -1.2244462244962695e-16
vn -0.9968780783212579 0.07895629780148113 -1.2208235463535545e-16
vn -0.9998361573165614 0.018101340349598368 -1.2244462244962695e-16
vn -0.9998361573165614 0.018101340349598368 -1.2244462244962695e-16
vn -0.9998361573165614 0.018101340349598368 -1.2244462244962695e-16
vn -0.9900611667236552 -0.14063742796920947 -1.2124752572861045e-16
vn -0.9900611667236552 -0.14063742796920947 -1.2124752572861045e-16
vn -0.9998361573165614 0.018101340349598368 -1.2244462244962695e-16
vn -0.9900611667236552 -0.14063742796920947 -1.2124752572861045e-16
vn -0.9900611667236552 -0.14063742796920947 -1.2124752572861045e-16
vn -0.9900611667236552 -0.14063742796920947 -1.2124752572861045e-16
vn -0.943726477583713 -0.3307269803137289 -1.155731587284187e-16
vn -0.943726477583713 -0.3307269803137289 -1.155731587284187e-16
vn -0.9900611667236552 -0.14063742796920947 -1.2124752572861045e-16
vn -0.943726477583713 -0.3307269803137289 -1.155731587284187e-16
vn -0.943726477583713 -0.3307269803137289 -1.155731587284187e-16
vn -0.943726477583713 -0.3307269803137289 -1.155731587284187e-16
vn -0.8800825899902571 -0.47482063434105404 -1.0777903104374279e-16
vn -0.8800825899902571 -0.47482063434105404 -1.0777903104374279e-16
vn -0.943726477583713 -0.3307269803137289 -1.155731587284187e-16
vn -0.8800825899902571 -0.47482063434105404 -1.0777903104374279e-16
vn -0.8800825899902571 -0.47482063434105404 -1.0777903104374279e-16
vn -0.8800825899902571 -0.47482063434105404 -1.0777903104374279e-16
vn -0.85012227304219 -0.5265853405456519 -1.0410995113915389e-16
vn -0.85012227304219 -0.5265853405456519 -1.0410995113915389e-16
vn -0.8800825899902571 -0.47482063434105404 -1.0777903104374279e-16
vn -0.85012227304219 -0.5265853405456519 -1.0410995113915389e-16
vn 0.9998361573165614 -0.018101340349598368 1.2244462244962695e-16
vn 0.9998361573165614 -0.018101340349598368 1.2244462244962695e-16
vn 0.9968780783212579 -0.07895629780148113 1.2208235463535545e-16
vn 0.9968780783212579 -0.07895629780148113 1.2208235463535545e-16
vn 0.9998361573165614 -0.018101340349598368 1.2244462244962695e-16
vn 0.9968780783212579 -0.07895629780148113 1.2208235463535545e-16
vn 0.9998361573165614 -0.018101340349598368 1.2244462244962695e-16
vn 0.9900611667236552 0.14063742796920947 1.2124752572861045e-16
vn 0.9998361573165614 -0.018101340349598368 1.2244462244962695e-16
vn 0.9900611667236552 0.14063742796920947 1.2124752572861045e-16
vn 0.9900611667236552 0.14063742796920947 1.2124752572861045e-16
vn 0.9998361573165614 -0.018101340349598368 1.2244462244962695e-16
vn 0.9900611667236552 0.14063742796920947 1.2124752572861045e-16
vn 0.943726477583713 0.3307269803137289 1.155731587284187e-16
vn 0.9900611667236552 0.14063742796920947 1.2124752572861045e-16
vn 0.943726477583713 0.3307269803137289 1.155731587284187e-16
vn 0.943726477583713 0.3307269803137289 1.155731587284187e-16
vn 0.9900611667236552 0.14063742796920947 1.2124752572861045e-16
vn 0.943726477583713 0.3307269803137289 1.155731587284187e-16
vn 0.8800825899902571 0.47482063434105404 1.0777903104374279e-16
vn 0.943726477583713 0.3307269803137289 1.155731587284187e-16
vn 0.8800825899902571 0.47482063434105404 1.0777903104374279e-16
vn 0.8800825899902571 0.47482063434105404 1.0777903104374279e-16
vn 0.943726477583713 0.3307269803137289 1.155731587284187e-16
vn 0.8800825899902571 0.47482063434105404 1.0777903104374279e-16
vn 0.85012227304219 0.5265853405456519 1.0410995113915389e-16
vn 0.8800825899902571 0.47482063434105404 1.0777903104374279e-16
vn 0.85012227304219 0.5265853405456519 1.0410995113915389e-16
vn 0.85012227304219 0.5265853405456519 1.0410995113915389e-16
vn 0.8800825899902571 0.47482063434105404 1.0777903104374279e-16
vn -0.9968780783212579 0.07895629780148113 -1.2208235463535545e-16
vn -0.9968780783212579 0.07895629780148113 -1.2208235463535545e-16
vn -0.9998361573165614 0.018101340349598368 -1.2244462244962695e-16
vn -0.9998361573165614 0.018101340349598368 -1.2244462244962695e-16
vn -0.9968780783212579 0.07895629780148113 -1.2208235463535545e-16
vn -0.9998361573165614 0.018101340349598368 -1.2244462244962695e-16
vn -0.9998361573165614 0.018101340349598368 -1.2244462244962695e-16
vn -0.9998361573165614 0.018101340349598368 -1.2244462244962695e-16
vn -0.9900611667236552 -0.14063742796920947 -1.2124752572861045e-16
vn -0.9900611667236552 -0.14063742796920947 -1.2124752572861045e-16
vn -0.9998361573165614 0.018101340349598368 -1.2244462244962695e-16
vn -0.9900611667236552 -0.14063742796920947 -1.2124752572861045e-16
vn -0.9900611667236552 -0.14063742796920947 -1.2124752572861045e-16
vn -0.9900611667236552 -0.14063742796920947 -1.2124752572861045e-16
vn -0.943726477583713 -0.3307269803137289 -1.155731587284187e-16
vn -0.943726477583713 -0.3307269803137289 -1.155731587284187e-16
vn -0.9900611667236552 -0.14063742796920947 -1.2124752572861045e-16
vn -0.943726477583713 -0.3307269803137289 -1.155731587284187e-16
vn -0.943726477583713 -0.3307269803137289 -1.155731587284187e-16
vn -0.943726477583713 -0.3307269803137289 -1.155731587284187e-16
vn -0.8800825899902571 -0.47482063434105404 -1.0777903104374279e-16
vn -0.8800825899902571 -0.47482063434105404 -1.0777903104374279e-16
vn -0.943726477583713 -0.3307269803137289 -1.155731587284187e-16
vn -0.8800825899902571 -0.47482063434105404 -1.0777903104374279e-16
vn -0.8800825899902571 -0.47482063434105404 -1.0777903104374279e-16
vn -0.8800825899902571 -0.47482063434105404 -1.0777903104374279e-16
vn -0.85012227304219 -0.5265853405456519 -1.0410995113915389e-16
vn -0.85012227304219 -0.5265853405456519 -1.0410995113915389e-16
vn -0.8800825899902571 -0.47482063434105404 -1.0777903104374279e-16
vn -0.85012227304219 -0.5265853405456519 -1.0410995113915389e-16
vn 0.9998361573165614 -0.018101340349598368 1.2244462244962695e-16
vn 0.9998361573165614 -0.018101340349598368 1.2244462244962695e-16
vn 0.9968780783212579 -0.07895629780148113 1.2208235463535545e-16
vn 0.9968780783212579 -0.07895629780148113 1.2208235463535545e-16
vn 0.9998361573165614 -0.018101340349598368 1.2244462244962695e-16
vn 0.9968780783212579 -0.07895629780148113 1.2208235463535545e-16
vn 0.9998361573165614 -0.018101340349598368 1.2244462244962695e-16
vn 0.9900611667236552 0.14063742796920947 1.2124752572861045e-16
vn 0.9998361573165614 -0.018101340349598368 1.2244462244962695e-16
vn 0.9900611667236552 0.14063742796920947 1.2124752572861045e-16
vn 0.9900611667236552 0.14063742796920947 1.2124752572861045e-16
vn 0.9998361573165614 -0.018101340349598368 1.2244462244962695e-16
vn 0.9900611667236552 0.14063742796920947 1.2124752572861045e-16
vn 0.943726477583713 0.3307269803137289 1.155731587284187e-16
vn 0.9900611667236552 0.14063742796920947 1.2124752572861045e-16
vn 0.943726477583713 0.3307269803137289 1.155731587284187e-16
vn 0.943726477583713 0.3307269803137289 1.155731587284187e-16
vn 0.9900611667236552 0.14063742796920947 1.2124752572861045e-16
vn 0.943726477583713 0.3307269803137289 1.155731587284187e-16
vn 0.8800825899902571 0.47482063434105404 1.0777903104374279e-16
vn 0.943726477583713 0.3307269803137289 1.155731587284187e-16
vn 0.8800825899902571 0.47482063434105404 1.0777903104374279e-16
vn 0.8800825899902571 0.47482063434105404 1.0777903104374279e-16
vn 0.943726477583713 0.3307269803137289 1.155731587284187e-16
vn 0.8800825899902571 0.47482063434105404 1.0777903104374279e-16
vn 0.85012227304219 0.5265853405456519 1.0410995113915389e-16
vn 0.8800825899902571 0.47482063434105404 1.0777903104374279e-16
vn 0.85012227304219 0.5265853405456519 1.0410995113915389e-16
vn 0.85012227304219 0.5265853405456519 1.0410995113915389e-16
vn 0.8800825899902571 0.47482063434105404 1.0777903104374279e-16
f 1/1/1 2/2/2 3/3/3
f 4/4/4 5/5/5 6/6/6
f 7/7/7 8/8/8 9/9/9
f 10/10/10 11/11/11 12/12/12
f 13/13/13 14/14/14 15/15/15
f 16/16/16 17/17/17 18/18/18
f 19/19/19 20/20/20 21/21/21
f 22/22/22 23/23/23 24/24/24
f 25/25/25 26/26/26 27/27/27
f 28/28/28 29/29/29 30/30/30
f 31/31/31 32/32/32 33/33/33
f 34/34/34 35/35/35 36/36/36
f 37/37/37 38/38/38 39/39/39
f 40/40/40 41/41/41 42/42/42
f 43/43/43 44/44/44 45/45/45
f 46/46/46 47/47/47 48/48/48
f 49/49/49 50/50/50 51/51/51
f 52/52/52 53/53/53 54/54/54
f 55/55/55 56/56/56 57/57/57
f 58/58/58 59/59/59 60/60/60
f 61/61/61 62/62/62 63/63/63
f 64/64/64 65/65/65 66/66/66
f 67/67/67 68/68/68 69/69/69
f 70/70/70 71/71/71 72/72/72
f 73/73/73 74/74/74 75/75/75
f 76/76/76 77/77/77 78/78/78
f 79/79/79 80/80/80 81/81/81
f 82/82/82 83/83/83 84/84/84
f 85/85/85 86/86/86 87/87/87
f 88/88/88 89/89/89 90/90/90
f 91/91/91 92/92/92 93/93/93
f 94/94/94 95/95/95 96/96/96
f 97/97/97 98/98/98 99/99/99
f 100/100/100 101/101/101 102/102/102
f 103/103/103 104/104/104 105/105/105
f 106/106/106 107/107/107 108/108/108
f 109/109/109 110/110/110 111/111/111
f 112/112/112 113/113/113 114/114/114
f 115/115/115 116/116/116 117/117/117
f 118/118/118 119/119/119 120/120/120
f 121/121/121 122/122/122 123/123/123
f 124/124/124 125/125/125 126/126/126
f 127/127/127 128/128/128 129/129/129
f 130/130/130 131/131/131 132/132/132
f 133/133/133 134/134/134 135/135/135
f 136/136/136 137/137/137 138/138/138
f 139/139/139 140/140/140 141/141/141
f 142/142/142 143/143/143 144/144/144
f 145/145/145 146/146/146 147/147/147
f 148/148/148 149/149/149 150/150/150
f 151/151/151 152/152/152 153/153/153
f 154/154/154 155/155/155 156/156/156
f 157/157/157 158/158/158 159/159/159
f 160/160/160 161/161/161 162/162/162
f 163/163/163 164/164/164 165/165/165
f 166/166/166 167/167/167 168/168/168
f 169/169/169 170/170/170 171/171/171
f 172/172/172 173/173/173 174/174/174
f 175/175/175 176/176/176 177/177/177
f 178/178/178 179/179/179 180/180/180
f 181/181/181 182/182/182 183/183/183
f 184/184/184 185/185/185 186/186/186
f 187/187/187 188/188/188 189/189/189
f 190/190/190 191/191/191 192/192/192
f 193/193/193 194/194/194 195/195/195
f 196/196/196 197/197/197 198/198/198
f 199/199/199 200/200/200 201/201/201
f 202/202/202 203/203/203 204/204/204
f 205/205/205 206/206/206 207/207/207
f 208/208/208 209/209/209 210/210/210
f 211/211/211 212/212/212 213/213/213
f 214/214/214 215/215/215 216/216/216
f 217/217/217 218/218/218 219/219/219
f 220/220/220 221/221/221 222/222/222
f 223/223/223 224/224/224 225/225/225
f 226/226/226 227/227/227 228/228/228
f 229/229/229 230/230/230 231/231/231
f 232/232/232 233/233/233 234/234/234
f 235/235/235 236/236/236 237/237/237
f 238/238/238 239/239/239 240/240/240
f 241/241/241 242/242/242 243/243/243
f 244/244/244 245/245/245 246/246/246
f 247/247/247 248/248/248 249/249/249
f 250/250/250 251/251/251 252/252/252
f 253/253/253 254/254/254 255/255/255
f 256/256/256 257/257/257 258/258/258
f 259/259/259 260/260/260 261/261/261
f 262/262/262 263/263/263 264/264/264
f 265/265/265 266/266/266 267/267/267
f 268/268/268 269/269/269 270/270/270
f 271/271/271 272/272/272 273/273/273
f 274/274/274 275/275/275 276/276/276
f 277/277/277 278/278/278 279/279/279
f 280/280/280 281/281/281 282/282/282
f 283/283/283 284/284/284 285/285/285
f 286/286/286 287/287/287 288/288/288
f 289/289/289 290/290/290 291/291/291
f 292/292/292 293/293/293 294/294/294
f 295/295/295 296/296/296 297/297/297
f 298/298/298 299/299/299 300/300/300
f 301/301/301 302/302/302 303/303/303
f 304/304/304 305/305/305 306/306/306
f 307/307/307 308/308/308 309/309/309
f 310/310/310 311/311/311 312/312/312
f 313/313/313 314/314/314 315/315/315
f 316/316/316 317/317/317 318/318/318
f 319/319/319 320/320/320 321/321/321
f 322/322/322 323/323/323 324/324/324
f 325/325/325 326/326/326 327/327/327
f 328/328/328 329/329/329 330/330/330
f 331/331/331 332/332/332 333/333/333
f 334/334/334 335/335/335 336/336/336
f 337/337/337 338/338/338 339/339/339
f 340/340/340 341/341/341 342/342/342
f 343/343/343 344/344/344 345/345/345
f 346/346/346 347/347/347 348/348/348
f 349/349/349 350/350/350 351/351/351
f 352/352/352 353/353/353 354/354/354
f 355/355/355 356/356/356 357/357/357
f 358/358/358 359/359/359 360/360/360
f 361/361/361 362/362/362 363/363/363
f 364/364/364 365/365/365 366/366/366
f 367/367/367 368/368/368 369/369/369
f 370/370/370 371/371/371 372/372/372
f 373/373/373 374/374/374 375/375/375
f 376/376/376 377/377/377 378/378/378
f 379/379/379 380/380/380 381/381/381
f 382/382/382 383/383/383 384/384/384
f 385/385/385 386/386/386 387/387/387
f 388/388/388 389/389/389 390/390/390
f 391/391/391 392/392/392 393/393/393
f 394/394/394 395/395/395 396/396/396
